<?xml version="1.0" encoding="UTF-8" standalone="no"?>
<svg
   width="420.53302"
   height="336.51785"
   version="1.1"
   id="svg2"
   xmlns="http://www.w3.org/2000/svg"
   xmlns:svg="http://www.w3.org/2000/svg">
  <defs
     id="defs2" />
  <path
     fill="#073836"
     d="M -7.8125e-6,20.617496 C 23.357992,18.638496 45.959992,14.230496 68.701992,8.6494958 c 11.172,-2.742 22.704,-6.976 34.047998,-8.47799995 1.317,-0.15 2.385,-0.39 3.615,0.248 1.042,7.68899995 0.144,16.45900015 0.158,24.29600015 l 0.022,54.777 0.015,90.141004 c -0.007,16.042 0.675,32.38 -0.313,48.382 10.605,-10.675 20.54,-22.068 30.605,-33.249 9.982,-11.087 21.664,-22.645 29.084,-35.637 3.265,-5.716 5.73,-12.511 5.845,-19.152 0.081,-4.67 -1.062,-9.331 -4.515,-12.659 -5.735,-5.529 -14.504,-5.29 -21.898,-5.324 l -0.151,-7.824 c 14.002,0.29 28.048,0.048 42.054,0.022 31.951,-0.06 62.739,0.496 91.122,-16.946004 21.574,-13.257 35.635,-33.218 41.382,-57.733 l 7.458,0.004 -0.091,74.656004 58.473,-0.003 -0.047,8.213 c -19.457,0.35 -38.956,0.143 -58.418,0.195 l 0.025,103.436 -0.057,36.005 c -0.021,15.041 -1.107,31.327 3.261,45.87 2.144,7.137 6.248,13.594 13.085,17.043 6.711,3.386 14.38,3.033 21.366,0.763 21.997,-7.149 37.689,-29.185 47.743,-48.838 l 7.96,4.329 c -5.659,12.758 -14.588,24.888 -24.34,34.777 -19.572,19.85 -47.509,30.474 -75.235,30.554 -19.338,0.056 -39.231,-5.994 -53.085,-20.012 -20.936,-21.184 -17.563,-49.917 -17.489,-77.241 0.118,-42.646 0.424,-85.369 -0.202,-128.009 l -0.649,0.054 c -25.222,2.265 -49.172,14.913 -67.099,32.42 -6.506,6.354 -12.156,13.355 -17.948,20.343 4.973,9.839 10.849,19.291 16.338,28.853 l 28.688,49.938 c 11.564,20.076 22.75,42.617 35.583,61.661 6.921,10.272 14.429,18.773 27.034,21.25 l -0.064,6.069 c -14.259,0.411 -28.631,0.058 -42.901,0.059 -18.89,0.002 -37.828,0.252 -56.71,-0.254 q -21.387,-36.767 -43.664,-73.002 c -7.255,-11.78 -14.211,-23.973 -22.473,-35.079 0.737,7.183 0.276,14.814 0.272,22.045 l -0.037,39.909 c -0.009,6.981 -0.464,14.29 0.561,21.207 0.563,3.794 1.667,8.275 4.257,11.189 5.177,5.826 13.862,6.352 21.111,6.638 l -0.24,7.033 c -15.145,0.543 -30.442,0.265 -45.604998,0.292 l -83.5869998,-0.006 0.028,-7.281 c 6.818,-0.062 15.4579998,-0.888 20.6979998,-5.681 4.151,-3.797 5.329,-10.507 5.672,-15.911 0.993,-15.645 0.231,-31.791 0.233,-47.484 l -0.008,-90.082 -0.019,-69.607004 c -0.002,-13.091 0.803,-26.692 -0.571,-39.693 -0.723,-6.834 -2.4,-15.421 -7.16,-20.617 -5.675,-6.194 -13.8909998,-7.922 -21.90199981,-8.136 z"
     id="path2" />
</svg>
